<mxfile host="app.diagrams.net" modified="2022-11-16T10:38:03.965Z" agent="5.0 (Windows NT 10.0; WOW64) AppleWebKit/537.36 (KHTML, like Gecko) Chrome/78.0.3904.108 Safari/537.36" etag="AJN1gWNi19dwkvns4n4T" version="20.5.3" type="github">
  <diagram id="WdBbdv4TCkT75ZllJV3W" name="Page-1">
    <mxGraphModel dx="1187" dy="614" grid="1" gridSize="10" guides="1" tooltips="1" connect="1" arrows="1" fold="1" page="1" pageScale="1" pageWidth="1100" pageHeight="850" math="0" shadow="0">
      <root>
        <mxCell id="0" />
        <mxCell id="1" parent="0" />
        <mxCell id="Lv4Dapnyp3Li67Ld213d-19" style="rounded=0;orthogonalLoop=1;jettySize=auto;html=1;exitX=0.5;exitY=0;exitDx=0;exitDy=0;edgeStyle=orthogonalEdgeStyle;endArrow=ERmany;endFill=0;entryX=0.5;entryY=1;entryDx=0;entryDy=0;" parent="1" source="Lv4Dapnyp3Li67Ld213d-3" target="Lv4Dapnyp3Li67Ld213d-20" edge="1">
          <mxGeometry relative="1" as="geometry">
            <mxPoint x="115" y="385" as="targetPoint" />
            <Array as="points">
              <mxPoint x="60" y="635" />
              <mxPoint x="95" y="635" />
            </Array>
          </mxGeometry>
        </mxCell>
        <mxCell id="Lv4Dapnyp3Li67Ld213d-3" value="CS架构" style="text;html=1;strokeColor=none;fillColor=none;align=center;verticalAlign=middle;whiteSpace=wrap;rounded=0;" parent="1" vertex="1">
          <mxGeometry x="30" y="765" width="60" height="30" as="geometry" />
        </mxCell>
        <mxCell id="Lv4Dapnyp3Li67Ld213d-21" style="edgeStyle=orthogonalEdgeStyle;rounded=0;orthogonalLoop=1;jettySize=auto;html=1;exitX=0.5;exitY=0;exitDx=0;exitDy=0;entryX=0.5;entryY=1;entryDx=0;entryDy=0;endArrow=ERmany;endFill=0;" parent="1" source="Lv4Dapnyp3Li67Ld213d-4" target="Lv4Dapnyp3Li67Ld213d-20" edge="1">
          <mxGeometry relative="1" as="geometry">
            <Array as="points">
              <mxPoint x="260" y="635" />
              <mxPoint x="95" y="635" />
            </Array>
          </mxGeometry>
        </mxCell>
        <mxCell id="Lv4Dapnyp3Li67Ld213d-29" style="edgeStyle=orthogonalEdgeStyle;rounded=0;orthogonalLoop=1;jettySize=auto;html=1;exitX=0.5;exitY=0;exitDx=0;exitDy=0;entryX=0.5;entryY=1;entryDx=0;entryDy=0;endArrow=ERmany;endFill=0;" parent="1" source="Lv4Dapnyp3Li67Ld213d-4" target="Lv4Dapnyp3Li67Ld213d-28" edge="1">
          <mxGeometry relative="1" as="geometry">
            <Array as="points">
              <mxPoint x="260" y="635" />
              <mxPoint x="380" y="635" />
              <mxPoint x="380" y="430" />
            </Array>
          </mxGeometry>
        </mxCell>
        <mxCell id="Lv4Dapnyp3Li67Ld213d-4" value="BS架构" style="text;html=1;strokeColor=none;fillColor=none;align=center;verticalAlign=middle;whiteSpace=wrap;rounded=0;" parent="1" vertex="1">
          <mxGeometry x="230" y="765" width="60" height="30" as="geometry" />
        </mxCell>
        <mxCell id="Lv4Dapnyp3Li67Ld213d-35" style="edgeStyle=orthogonalEdgeStyle;rounded=0;orthogonalLoop=1;jettySize=auto;html=1;exitX=0.5;exitY=0;exitDx=0;exitDy=0;endArrow=ERmany;endFill=0;" parent="1" source="Lv4Dapnyp3Li67Ld213d-5" target="Lv4Dapnyp3Li67Ld213d-33" edge="1">
          <mxGeometry relative="1" as="geometry">
            <Array as="points">
              <mxPoint x="520" y="635" />
              <mxPoint x="680" y="635" />
            </Array>
          </mxGeometry>
        </mxCell>
        <mxCell id="Lv4Dapnyp3Li67Ld213d-5" value="大数据" style="text;html=1;strokeColor=none;fillColor=none;align=center;verticalAlign=middle;whiteSpace=wrap;rounded=0;" parent="1" vertex="1">
          <mxGeometry x="490" y="765" width="60" height="30" as="geometry" />
        </mxCell>
        <mxCell id="Lv4Dapnyp3Li67Ld213d-25" style="edgeStyle=orthogonalEdgeStyle;rounded=0;orthogonalLoop=1;jettySize=auto;html=1;exitX=0.5;exitY=0;exitDx=0;exitDy=0;entryX=0.5;entryY=1;entryDx=0;entryDy=0;endArrow=ERmany;endFill=0;" parent="1" source="Lv4Dapnyp3Li67Ld213d-6" target="Lv4Dapnyp3Li67Ld213d-20" edge="1">
          <mxGeometry relative="1" as="geometry">
            <Array as="points">
              <mxPoint x="640" y="635" />
              <mxPoint x="95" y="635" />
            </Array>
          </mxGeometry>
        </mxCell>
        <mxCell id="Lv4Dapnyp3Li67Ld213d-6" value="云计算" style="text;html=1;strokeColor=none;fillColor=none;align=center;verticalAlign=middle;whiteSpace=wrap;rounded=0;" parent="1" vertex="1">
          <mxGeometry x="610" y="765" width="60" height="30" as="geometry" />
        </mxCell>
        <mxCell id="Lv4Dapnyp3Li67Ld213d-36" style="edgeStyle=orthogonalEdgeStyle;rounded=0;orthogonalLoop=1;jettySize=auto;html=1;exitX=0.5;exitY=0;exitDx=0;exitDy=0;entryX=0.5;entryY=1;entryDx=0;entryDy=0;endArrow=ERmany;endFill=0;" parent="1" source="Lv4Dapnyp3Li67Ld213d-7" target="Lv4Dapnyp3Li67Ld213d-34" edge="1">
          <mxGeometry relative="1" as="geometry">
            <Array as="points">
              <mxPoint x="750" y="635" />
              <mxPoint x="935" y="635" />
            </Array>
          </mxGeometry>
        </mxCell>
        <mxCell id="Lv4Dapnyp3Li67Ld213d-7" value="移动" style="text;html=1;strokeColor=none;fillColor=none;align=center;verticalAlign=middle;whiteSpace=wrap;rounded=0;" parent="1" vertex="1">
          <mxGeometry x="720" y="765" width="60" height="30" as="geometry" />
        </mxCell>
        <mxCell id="Lv4Dapnyp3Li67Ld213d-8" value="AI" style="text;html=1;strokeColor=none;fillColor=none;align=center;verticalAlign=middle;whiteSpace=wrap;rounded=0;" parent="1" vertex="1">
          <mxGeometry x="830" y="765" width="60" height="30" as="geometry" />
        </mxCell>
        <mxCell id="Lv4Dapnyp3Li67Ld213d-9" value="物联网" style="text;html=1;strokeColor=none;fillColor=none;align=center;verticalAlign=middle;whiteSpace=wrap;rounded=0;" parent="1" vertex="1">
          <mxGeometry x="970" y="765" width="60" height="30" as="geometry" />
        </mxCell>
        <mxCell id="Lv4Dapnyp3Li67Ld213d-20" value="HIS" style="rounded=1;whiteSpace=wrap;html=1;" parent="1" vertex="1">
          <mxGeometry x="20" y="370" width="150" height="60" as="geometry" />
        </mxCell>
        <mxCell id="Lv4Dapnyp3Li67Ld213d-23" value="PB" style="text;html=1;strokeColor=none;fillColor=none;align=center;verticalAlign=middle;whiteSpace=wrap;rounded=0;" parent="1" vertex="1">
          <mxGeometry x="35" y="530" width="60" height="30" as="geometry" />
        </mxCell>
        <mxCell id="Lv4Dapnyp3Li67Ld213d-24" value=".NET" style="text;html=1;strokeColor=none;fillColor=none;align=center;verticalAlign=middle;whiteSpace=wrap;rounded=0;" parent="1" vertex="1">
          <mxGeometry x="30" y="570" width="60" height="30" as="geometry" />
        </mxCell>
        <mxCell id="Lv4Dapnyp3Li67Ld213d-27" value="Spring Cloud" style="text;html=1;strokeColor=none;fillColor=none;align=center;verticalAlign=middle;whiteSpace=wrap;rounded=0;" parent="1" vertex="1">
          <mxGeometry x="100" y="525" width="90" height="30" as="geometry" />
        </mxCell>
        <mxCell id="Lv4Dapnyp3Li67Ld213d-28" value="区域医疗" style="rounded=1;whiteSpace=wrap;html=1;" parent="1" vertex="1">
          <mxGeometry x="297" y="370" width="150" height="60" as="geometry" />
        </mxCell>
        <mxCell id="Lv4Dapnyp3Li67Ld213d-31" value="Spring" style="text;html=1;strokeColor=none;fillColor=none;align=center;verticalAlign=middle;whiteSpace=wrap;rounded=0;" parent="1" vertex="1">
          <mxGeometry x="387" y="485" width="63" height="30" as="geometry" />
        </mxCell>
        <mxCell id="Lv4Dapnyp3Li67Ld213d-33" value="决策支持" style="rounded=1;whiteSpace=wrap;html=1;" parent="1" vertex="1">
          <mxGeometry x="610" y="370" width="150" height="60" as="geometry" />
        </mxCell>
        <mxCell id="Lv4Dapnyp3Li67Ld213d-34" value="互联网医院" style="rounded=1;whiteSpace=wrap;html=1;" parent="1" vertex="1">
          <mxGeometry x="860" y="370" width="150" height="60" as="geometry" />
        </mxCell>
        <mxCell id="Lv4Dapnyp3Li67Ld213d-39" value="SOA" style="text;html=1;strokeColor=none;fillColor=none;align=center;verticalAlign=middle;whiteSpace=wrap;rounded=0;" parent="1" vertex="1">
          <mxGeometry x="240" y="660" width="90" height="30" as="geometry" />
        </mxCell>
        <mxCell id="Lv4Dapnyp3Li67Ld213d-40" value="Web Service" style="text;html=1;strokeColor=none;fillColor=none;align=center;verticalAlign=middle;whiteSpace=wrap;rounded=0;" parent="1" vertex="1">
          <mxGeometry x="260" y="690" width="90" height="30" as="geometry" />
        </mxCell>
        <mxCell id="Lv4Dapnyp3Li67Ld213d-41" value="虚拟化" style="text;html=1;strokeColor=none;fillColor=none;align=center;verticalAlign=middle;whiteSpace=wrap;rounded=0;" parent="1" vertex="1">
          <mxGeometry x="620" y="660" width="90" height="30" as="geometry" />
        </mxCell>
        <mxCell id="Lv4Dapnyp3Li67Ld213d-42" value="按需部署" style="text;html=1;strokeColor=none;fillColor=none;align=center;verticalAlign=middle;whiteSpace=wrap;rounded=0;" parent="1" vertex="1">
          <mxGeometry x="630" y="690" width="80" height="30" as="geometry" />
        </mxCell>
        <mxCell id="Lv4Dapnyp3Li67Ld213d-44" value="Doris" style="text;html=1;strokeColor=none;fillColor=none;align=center;verticalAlign=middle;whiteSpace=wrap;rounded=0;" parent="1" vertex="1">
          <mxGeometry x="666" y="455" width="90" height="30" as="geometry" />
        </mxCell>
        <mxCell id="Lv4Dapnyp3Li67Ld213d-45" value="Spark" style="text;html=1;strokeColor=none;fillColor=none;align=center;verticalAlign=middle;whiteSpace=wrap;rounded=0;" parent="1" vertex="1">
          <mxGeometry x="667" y="500" width="90" height="30" as="geometry" />
        </mxCell>
        <mxCell id="Lv4Dapnyp3Li67Ld213d-46" value="Hadoop" style="text;html=1;strokeColor=none;fillColor=none;align=center;verticalAlign=middle;whiteSpace=wrap;rounded=0;" parent="1" vertex="1">
          <mxGeometry x="597" y="570" width="90" height="30" as="geometry" />
        </mxCell>
        <mxCell id="Lv4Dapnyp3Li67Ld213d-47" value="Flink" style="text;html=1;strokeColor=none;fillColor=none;align=center;verticalAlign=middle;whiteSpace=wrap;rounded=0;" parent="1" vertex="1">
          <mxGeometry x="667" y="540" width="90" height="30" as="geometry" />
        </mxCell>
        <mxCell id="Lv4Dapnyp3Li67Ld213d-48" value="Kafka" style="text;html=1;strokeColor=none;fillColor=none;align=center;verticalAlign=middle;whiteSpace=wrap;rounded=0;" parent="1" vertex="1">
          <mxGeometry x="597" y="470" width="90" height="30" as="geometry" />
        </mxCell>
        <mxCell id="Lv4Dapnyp3Li67Ld213d-49" value="Sqoop" style="text;html=1;strokeColor=none;fillColor=none;align=center;verticalAlign=middle;whiteSpace=wrap;rounded=0;" parent="1" vertex="1">
          <mxGeometry x="597" y="490" width="90" height="30" as="geometry" />
        </mxCell>
        <mxCell id="Lv4Dapnyp3Li67Ld213d-50" value="Jsp" style="text;html=1;strokeColor=none;fillColor=none;align=center;verticalAlign=middle;whiteSpace=wrap;rounded=0;" parent="1" vertex="1">
          <mxGeometry x="367" y="455" width="90" height="30" as="geometry" />
        </mxCell>
        <mxCell id="Lv4Dapnyp3Li67Ld213d-51" value="Vue" style="text;html=1;strokeColor=none;fillColor=none;align=center;verticalAlign=middle;whiteSpace=wrap;rounded=0;" parent="1" vertex="1">
          <mxGeometry x="15" y="485" width="90" height="30" as="geometry" />
        </mxCell>
        <mxCell id="Lv4Dapnyp3Li67Ld213d-52" value="MLlib" style="text;html=1;strokeColor=none;fillColor=none;align=center;verticalAlign=middle;whiteSpace=wrap;rounded=0;" parent="1" vertex="1">
          <mxGeometry x="667" y="585" width="90" height="30" as="geometry" />
        </mxCell>
        <mxCell id="Lv4Dapnyp3Li67Ld213d-53" value="分布式计算" style="text;html=1;strokeColor=none;fillColor=none;align=center;verticalAlign=middle;whiteSpace=wrap;rounded=0;" parent="1" vertex="1">
          <mxGeometry x="510" y="730" width="90" height="30" as="geometry" />
        </mxCell>
        <mxCell id="Lv4Dapnyp3Li67Ld213d-54" value="流处理" style="text;html=1;strokeColor=none;fillColor=none;align=center;verticalAlign=middle;whiteSpace=wrap;rounded=0;" parent="1" vertex="1">
          <mxGeometry x="500" y="695" width="90" height="30" as="geometry" />
        </mxCell>
        <mxCell id="Lv4Dapnyp3Li67Ld213d-55" value="消息中间件" style="text;html=1;strokeColor=none;fillColor=none;align=center;verticalAlign=middle;whiteSpace=wrap;rounded=0;" parent="1" vertex="1">
          <mxGeometry x="510" y="665" width="90" height="30" as="geometry" />
        </mxCell>
        <mxCell id="Lv4Dapnyp3Li67Ld213d-56" value="&amp;nbsp;机器学习" style="text;html=1;strokeColor=none;fillColor=none;align=center;verticalAlign=middle;whiteSpace=wrap;rounded=0;" parent="1" vertex="1">
          <mxGeometry x="860" y="650" width="90" height="30" as="geometry" />
        </mxCell>
        <mxCell id="Lv4Dapnyp3Li67Ld213d-57" value="知识图谱" style="text;html=1;strokeColor=none;fillColor=none;align=center;verticalAlign=middle;whiteSpace=wrap;rounded=0;" parent="1" vertex="1">
          <mxGeometry x="860" y="685" width="90" height="30" as="geometry" />
        </mxCell>
        <mxCell id="ISkN2TRPNlv8QTBpylPo-4" value="" style="endArrow=none;html=1;rounded=0;exitX=0.5;exitY=0;exitDx=0;exitDy=0;" edge="1" parent="1" source="Lv4Dapnyp3Li67Ld213d-8">
          <mxGeometry width="50" height="50" relative="1" as="geometry">
            <mxPoint x="840" y="680" as="sourcePoint" />
            <mxPoint x="860" y="630" as="targetPoint" />
          </mxGeometry>
        </mxCell>
        <mxCell id="ISkN2TRPNlv8QTBpylPo-5" value="Android（Side-Menu、&lt;br&gt;Context-Menu、&lt;br&gt;Pull-to-Refresh、&lt;br&gt;AndroidSwipeLayout等；）" style="text;whiteSpace=wrap;html=1;" vertex="1" parent="1">
          <mxGeometry x="950" y="440" width="160" height="80" as="geometry" />
        </mxCell>
        <mxCell id="ISkN2TRPNlv8QTBpylPo-6" value="IOS(Swift、UIKit框架)" style="text;whiteSpace=wrap;html=1;" vertex="1" parent="1">
          <mxGeometry x="810" y="485" width="120" height="40" as="geometry" />
        </mxCell>
        <mxCell id="ISkN2TRPNlv8QTBpylPo-7" value="uniapp" style="text;whiteSpace=wrap;html=1;" vertex="1" parent="1">
          <mxGeometry x="940" y="516.5" width="160" height="40" as="geometry" />
        </mxCell>
        <mxCell id="ISkN2TRPNlv8QTBpylPo-8" value="微信小程序（WXML、WXSS、JS）" style="text;whiteSpace=wrap;html=1;" vertex="1" parent="1">
          <mxGeometry x="810" y="560" width="130" height="40" as="geometry" />
        </mxCell>
        <mxCell id="ISkN2TRPNlv8QTBpylPo-9" value="多租户" style="text;html=1;strokeColor=none;fillColor=none;align=center;verticalAlign=middle;whiteSpace=wrap;rounded=0;" vertex="1" parent="1">
          <mxGeometry x="620" y="715" width="90" height="30" as="geometry" />
        </mxCell>
        <mxCell id="ISkN2TRPNlv8QTBpylPo-10" value="全面&lt;font style=&quot;font-size: 12px;&quot;&gt;感知：&lt;span style=&quot;font-family: &amp;quot;Times New Roman&amp;quot;; background-color: initial;&quot;&gt;RFID&lt;/span&gt;&lt;font style=&quot;background-color: initial; font-size: 12px;&quot; face=&quot;宋体&quot;&gt;、传感器、二维码&lt;/font&gt;&lt;/font&gt;" style="text;html=1;strokeColor=none;fillColor=none;align=center;verticalAlign=middle;whiteSpace=wrap;rounded=0;" vertex="1" parent="1">
          <mxGeometry x="1010" y="655" width="110" height="40" as="geometry" />
        </mxCell>
        <mxCell id="ISkN2TRPNlv8QTBpylPo-11" value="&lt;p class=&quot;MsoNormal&quot;&gt;&lt;span&gt;数据传输：RFID&lt;font face=&quot;宋体&quot;&gt;的手环、电子血压仪数据收集&lt;/font&gt;&lt;/span&gt;&lt;/p&gt;" style="text;whiteSpace=wrap;html=1;fontSize=12;" vertex="1" parent="1">
          <mxGeometry x="1010" y="695" width="110" height="60" as="geometry" />
        </mxCell>
        <mxCell id="ISkN2TRPNlv8QTBpylPo-12" value="移动支付" style="text;html=1;strokeColor=none;fillColor=none;align=center;verticalAlign=middle;whiteSpace=wrap;rounded=0;" vertex="1" parent="1">
          <mxGeometry x="740" y="695" width="90" height="30" as="geometry" />
        </mxCell>
        <mxCell id="ISkN2TRPNlv8QTBpylPo-13" value="移动查房" style="text;html=1;strokeColor=none;fillColor=none;align=center;verticalAlign=middle;whiteSpace=wrap;rounded=0;" vertex="1" parent="1">
          <mxGeometry x="740" y="730" width="90" height="30" as="geometry" />
        </mxCell>
        <mxCell id="ISkN2TRPNlv8QTBpylPo-14" value="移动护理" style="text;html=1;strokeColor=none;fillColor=none;align=center;verticalAlign=middle;whiteSpace=wrap;rounded=0;" vertex="1" parent="1">
          <mxGeometry x="740" y="710" width="90" height="30" as="geometry" />
        </mxCell>
        <mxCell id="ISkN2TRPNlv8QTBpylPo-15" value="5G通信" style="text;html=1;strokeColor=none;fillColor=none;align=center;verticalAlign=middle;whiteSpace=wrap;rounded=0;" vertex="1" parent="1">
          <mxGeometry x="740" y="640" width="90" height="30" as="geometry" />
        </mxCell>
        <mxCell id="ISkN2TRPNlv8QTBpylPo-17" value="WIFI" style="text;html=1;strokeColor=none;fillColor=none;align=center;verticalAlign=middle;whiteSpace=wrap;rounded=0;" vertex="1" parent="1">
          <mxGeometry x="740" y="660" width="90" height="30" as="geometry" />
        </mxCell>
        <mxCell id="ISkN2TRPNlv8QTBpylPo-18" value="Mirth Connect" style="text;whiteSpace=wrap;html=1;fontSize=12;" vertex="1" parent="1">
          <mxGeometry x="300" y="455" width="110" height="40" as="geometry" />
        </mxCell>
        <mxCell id="ISkN2TRPNlv8QTBpylPo-19" value="Mondrian" style="text;whiteSpace=wrap;html=1;fontSize=12;rotation=0;" vertex="1" parent="1">
          <mxGeometry x="297" y="485" width="110" height="40" as="geometry" />
        </mxCell>
        <mxCell id="ISkN2TRPNlv8QTBpylPo-20" value="Kettle" style="text;whiteSpace=wrap;html=1;fontSize=12;" vertex="1" parent="1">
          <mxGeometry x="300" y="525" width="110" height="40" as="geometry" />
        </mxCell>
        <mxCell id="ISkN2TRPNlv8QTBpylPo-21" value="WebSphere MQ" style="text;whiteSpace=wrap;html=1;fontSize=12;" vertex="1" parent="1">
          <mxGeometry x="297" y="570" width="120" height="40" as="geometry" />
        </mxCell>
        <mxCell id="ISkN2TRPNlv8QTBpylPo-22" value="Struts" style="text;html=1;strokeColor=none;fillColor=none;align=center;verticalAlign=middle;whiteSpace=wrap;rounded=0;" vertex="1" parent="1">
          <mxGeometry x="387" y="510" width="63" height="30" as="geometry" />
        </mxCell>
        <mxCell id="ISkN2TRPNlv8QTBpylPo-23" value="Hibernate" style="text;html=1;strokeColor=none;fillColor=none;align=center;verticalAlign=middle;whiteSpace=wrap;rounded=0;" vertex="1" parent="1">
          <mxGeometry x="394" y="535" width="63" height="30" as="geometry" />
        </mxCell>
        <mxCell id="ISkN2TRPNlv8QTBpylPo-24" value="Ehcache" style="text;whiteSpace=wrap;html=1;fontSize=12;" vertex="1" parent="1">
          <mxGeometry x="394" y="565" width="80" height="40" as="geometry" />
        </mxCell>
        <mxCell id="ISkN2TRPNlv8QTBpylPo-27" value="Redis" style="text;html=1;strokeColor=none;fillColor=none;align=center;verticalAlign=middle;whiteSpace=wrap;rounded=0;" vertex="1" parent="1">
          <mxGeometry x="80" y="550" width="90" height="30" as="geometry" />
        </mxCell>
        <mxCell id="ISkN2TRPNlv8QTBpylPo-29" value="Spring Boot" style="text;html=1;strokeColor=none;fillColor=none;align=center;verticalAlign=middle;whiteSpace=wrap;rounded=0;" vertex="1" parent="1">
          <mxGeometry x="100" y="495" width="90" height="30" as="geometry" />
        </mxCell>
        <mxCell id="ISkN2TRPNlv8QTBpylPo-30" value="Mybatis" style="text;html=1;strokeColor=none;fillColor=none;align=center;verticalAlign=middle;whiteSpace=wrap;rounded=0;" vertex="1" parent="1">
          <mxGeometry x="90" y="470" width="90" height="30" as="geometry" />
        </mxCell>
        <mxCell id="ISkN2TRPNlv8QTBpylPo-35" value="" style="endArrow=none;html=1;rounded=0;exitX=0.5;exitY=0;exitDx=0;exitDy=0;" edge="1" parent="1">
          <mxGeometry width="50" height="50" relative="1" as="geometry">
            <mxPoint x="999.5" y="772.5" as="sourcePoint" />
            <mxPoint x="999.5" y="637.5" as="targetPoint" />
          </mxGeometry>
        </mxCell>
        <mxCell id="ISkN2TRPNlv8QTBpylPo-36" value="" style="endArrow=none;html=1;rounded=0;fontSize=12;" edge="1" parent="1">
          <mxGeometry width="50" height="50" relative="1" as="geometry">
            <mxPoint x="680" y="635" as="sourcePoint" />
            <mxPoint x="1000" y="635" as="targetPoint" />
          </mxGeometry>
        </mxCell>
        <mxCell id="ISkN2TRPNlv8QTBpylPo-37" value="ESB" style="text;html=1;strokeColor=none;fillColor=none;align=center;verticalAlign=middle;whiteSpace=wrap;rounded=0;" vertex="1" parent="1">
          <mxGeometry x="240" y="720" width="90" height="30" as="geometry" />
        </mxCell>
        <mxCell id="ISkN2TRPNlv8QTBpylPo-38" value="" style="endArrow=none;html=1;rounded=0;exitX=0.5;exitY=0;exitDx=0;exitDy=0;" edge="1" parent="1">
          <mxGeometry width="50" height="50" relative="1" as="geometry">
            <mxPoint x="1132.5" y="772.5" as="sourcePoint" />
            <mxPoint x="1132.5" y="637.5" as="targetPoint" />
          </mxGeometry>
        </mxCell>
        <mxCell id="ISkN2TRPNlv8QTBpylPo-39" value="区块链" style="text;html=1;strokeColor=none;fillColor=none;align=center;verticalAlign=middle;whiteSpace=wrap;rounded=0;" vertex="1" parent="1">
          <mxGeometry x="1100" y="765" width="60" height="30" as="geometry" />
        </mxCell>
        <mxCell id="ISkN2TRPNlv8QTBpylPo-40" value="智能合约" style="text;html=1;strokeColor=none;fillColor=none;align=center;verticalAlign=middle;whiteSpace=wrap;rounded=0;" vertex="1" parent="1">
          <mxGeometry x="1120" y="650" width="90" height="30" as="geometry" />
        </mxCell>
        <mxCell id="ISkN2TRPNlv8QTBpylPo-41" value="分布式" style="text;html=1;strokeColor=none;fillColor=none;align=center;verticalAlign=middle;whiteSpace=wrap;rounded=0;" vertex="1" parent="1">
          <mxGeometry x="1110" y="685" width="90" height="30" as="geometry" />
        </mxCell>
        <mxCell id="ISkN2TRPNlv8QTBpylPo-43" value="" style="endArrow=none;html=1;rounded=0;fontSize=12;" edge="1" parent="1">
          <mxGeometry width="50" height="50" relative="1" as="geometry">
            <mxPoint x="810.0000000000002" y="635" as="sourcePoint" />
            <mxPoint x="1130" y="635" as="targetPoint" />
          </mxGeometry>
        </mxCell>
        <mxCell id="ISkN2TRPNlv8QTBpylPo-44" value="可溯源" style="text;html=1;strokeColor=none;fillColor=none;align=center;verticalAlign=middle;whiteSpace=wrap;rounded=0;" vertex="1" parent="1">
          <mxGeometry x="1110" y="715" width="90" height="30" as="geometry" />
        </mxCell>
        <mxCell id="ISkN2TRPNlv8QTBpylPo-45" value="云HIS" style="rounded=1;whiteSpace=wrap;html=1;" vertex="1" parent="1">
          <mxGeometry x="170" y="381.5" width="150" height="60" as="geometry" />
        </mxCell>
        <mxCell id="ISkN2TRPNlv8QTBpylPo-47" value="" style="endArrow=none;html=1;rounded=0;exitX=0.5;exitY=0;exitDx=0;exitDy=0;" edge="1" parent="1">
          <mxGeometry width="50" height="50" relative="1" as="geometry">
            <mxPoint x="227.5" y="585" as="sourcePoint" />
            <mxPoint x="227.5" y="450" as="targetPoint" />
          </mxGeometry>
        </mxCell>
        <mxCell id="ISkN2TRPNlv8QTBpylPo-48" value="Spring MVC" style="text;html=1;strokeColor=none;fillColor=none;align=center;verticalAlign=middle;whiteSpace=wrap;rounded=0;" vertex="1" parent="1">
          <mxGeometry x="217" y="466.5" width="63" height="30" as="geometry" />
        </mxCell>
        <mxCell id="ISkN2TRPNlv8QTBpylPo-49" value="Mybatis" style="text;html=1;strokeColor=none;fillColor=none;align=center;verticalAlign=middle;whiteSpace=wrap;rounded=0;" vertex="1" parent="1">
          <mxGeometry x="210" y="496.5" width="90" height="30" as="geometry" />
        </mxCell>
        <mxCell id="ISkN2TRPNlv8QTBpylPo-50" value="&lt;p class=&quot;MsoNormal&quot;&gt;&lt;span style=&quot;mso-spacerun:&#39;yes&#39;;font-family:&#39;Segoe UI&#39;;mso-fareast-font-family:宋体;&lt;br/&gt;color:rgb(36,41,46);font-size:12.0000pt;&quot;&gt;Activiti&amp;nbsp;&lt;/span&gt;&lt;/p&gt;" style="text;html=1;strokeColor=none;fillColor=none;align=center;verticalAlign=middle;whiteSpace=wrap;rounded=0;" vertex="1" parent="1">
          <mxGeometry x="210" y="526.5" width="90" height="30" as="geometry" />
        </mxCell>
        <mxCell id="ISkN2TRPNlv8QTBpylPo-51" value="&lt;p class=&quot;MsoNormal&quot;&gt;Mysql&lt;/p&gt;" style="text;html=1;strokeColor=none;fillColor=none;align=center;verticalAlign=middle;whiteSpace=wrap;rounded=0;" vertex="1" parent="1">
          <mxGeometry x="207" y="560" width="90" height="30" as="geometry" />
        </mxCell>
        <mxCell id="ISkN2TRPNlv8QTBpylPo-52" value="&lt;p class=&quot;MsoNormal&quot;&gt;Oracle&lt;/p&gt;" style="text;html=1;strokeColor=none;fillColor=none;align=center;verticalAlign=middle;whiteSpace=wrap;rounded=0;" vertex="1" parent="1">
          <mxGeometry x="20" y="441.5" width="90" height="30" as="geometry" />
        </mxCell>
        <mxCell id="ISkN2TRPNlv8QTBpylPo-53" value="Hbase" style="text;html=1;strokeColor=none;fillColor=none;align=center;verticalAlign=middle;whiteSpace=wrap;rounded=0;" vertex="1" parent="1">
          <mxGeometry x="595" y="550" width="90" height="30" as="geometry" />
        </mxCell>
        <mxCell id="ISkN2TRPNlv8QTBpylPo-54" value="Hive" style="text;html=1;strokeColor=none;fillColor=none;align=center;verticalAlign=middle;whiteSpace=wrap;rounded=0;" vertex="1" parent="1">
          <mxGeometry x="597" y="520" width="90" height="30" as="geometry" />
        </mxCell>
        <mxCell id="ISkN2TRPNlv8QTBpylPo-55" value="NLP" style="text;html=1;strokeColor=none;fillColor=none;align=center;verticalAlign=middle;whiteSpace=wrap;rounded=0;" vertex="1" parent="1">
          <mxGeometry x="850" y="720" width="90" height="30" as="geometry" />
        </mxCell>
        <mxCell id="ISkN2TRPNlv8QTBpylPo-56" value="vue" style="text;whiteSpace=wrap;html=1;" vertex="1" parent="1">
          <mxGeometry x="860" y="510" width="160" height="40" as="geometry" />
        </mxCell>
        <mxCell id="ISkN2TRPNlv8QTBpylPo-59" value="vant" style="text;whiteSpace=wrap;html=1;" vertex="1" parent="1">
          <mxGeometry x="940" y="570" width="160" height="40" as="geometry" />
        </mxCell>
        <mxCell id="ISkN2TRPNlv8QTBpylPo-60" value="echarts" style="text;whiteSpace=wrap;html=1;" vertex="1" parent="1">
          <mxGeometry x="940" y="545" width="160" height="40" as="geometry" />
        </mxCell>
        <mxCell id="ISkN2TRPNlv8QTBpylPo-61" value="element-ui" style="text;whiteSpace=wrap;html=1;" vertex="1" parent="1">
          <mxGeometry x="940" y="600" width="160" height="40" as="geometry" />
        </mxCell>
      </root>
    </mxGraphModel>
  </diagram>
</mxfile>
